<svg width="60" height="60" viewBox="0 0 60 60" fill="none" xmlns="http://www.w3.org/2000/svg">
<path d="M23.3875 14.575L23.6875 14.725C24.9 15.35 25.8875 16.3375 26.5125 17.55L26.6625 17.85C27.2625 19.0375 28.9625 19.0375 29.575 17.85L29.725 17.55C30.35 16.3375 31.3375 15.35 32.55 14.725L32.85 14.575C34.0375 13.975 34.0375 12.275 32.85 11.6625L32.55 11.5125C31.3375 10.8875 30.35 9.9 29.725 8.6875L29.575 8.3875C28.975 7.2 27.275 7.2 26.6625 8.3875L26.5125 8.6875C25.8875 9.9 24.9 10.8875 23.6875 11.5125L23.3875 11.6625C22.2 12.2625 22.2 13.9625 23.3875 14.575Z" fill="#F2F2F2"/>
<path d="M25.75 26.2875C26.975 25.6625 26.975 23.925 25.75 23.3L23.925 22.3625C22.3 21.525 20.975 20.2 20.1375 18.575L19.2 16.75C18.575 15.525 16.8375 15.525 16.2125 16.75L15.275 18.575C14.4375 20.2 13.1125 21.525 11.4875 22.3625L9.66252 23.3C8.43752 23.925 8.43752 25.6625 9.66252 26.2875L11.4875 27.225C13.1125 28.0625 14.4375 29.3875 15.275 31.0125L16.2125 32.8375C16.8375 34.0625 18.575 34.0625 19.2 32.8375L20.1375 31.0125C20.975 29.3875 22.3 28.0625 23.925 27.225L25.75 26.2875Z" fill="#F2F2F2"/>
<path d="M49.2 33.7625L47.35 32.8125C45.1125 31.675 43.325 29.8875 42.1875 27.65L41.2375 25.8C40.4 24.15 38.725 23.125 36.875 23.125C35.025 23.125 33.35 24.15 32.5125 25.8L31.5625 27.65C30.425 29.8875 28.6375 31.675 26.4 32.8125L24.55 33.7625C22.9 34.6 21.875 36.275 21.875 38.125C21.875 39.975 22.9 41.65 24.55 42.4875L26.4 43.4375C28.6375 44.575 30.425 46.3625 31.5625 48.6L32.5125 50.45C33.35 52.1 35.025 53.125 36.875 53.125C38.725 53.125 40.4 52.1 41.2375 50.45L42.1875 48.6C43.325 46.3625 45.1125 44.575 47.35 43.4375L49.2 42.4875C50.85 41.65 51.875 39.975 51.875 38.125C51.875 36.275 50.85 34.6 49.2 33.7625ZM47.5 39.15L45.65 40.1C42.7 41.6 40.35 43.95 38.85 46.9L37.9 48.75C37.6125 49.3125 37.0875 49.375 36.875 49.375C36.6625 49.375 36.1375 49.3125 35.85 48.75L34.9 46.9C33.4 43.95 31.05 41.6 28.1 40.1L26.25 39.15C25.6875 38.8625 25.625 38.3375 25.625 38.125C25.625 37.9125 25.6875 37.3875 26.25 37.1L28.1 36.15C31.05 34.65 33.4 32.3 34.9 29.35L35.85 27.5C36.1375 26.9375 36.6625 26.875 36.875 26.875C37.0875 26.875 37.6125 26.9375 37.9 27.5L38.85 29.35C40.35 32.3 42.7 34.65 45.65 36.15L47.5 37.1C48.0625 37.3875 48.125 37.9125 48.125 38.125C48.125 38.3375 48.0625 38.8625 47.5 39.15Z" fill="#F2F2F2"/>
</svg>
