<svg width="24" height="25" viewBox="0 0 24 25" fill="none" xmlns="http://www.w3.org/2000/svg">
<path d="M7.616 20.334C7.168 20.334 6.78667 20.1766 6.472 19.862C6.15733 19.5473 6 19.1663 6 18.719V6.33396H5V5.33396H9V4.56396H15V5.33396H19V6.33396H18V18.719C18 19.179 17.846 19.5633 17.538 19.872C17.23 20.1806 16.8453 20.3346 16.384 20.334H7.616ZM17 6.33396H7V18.719C7 18.8983 7.05767 19.0456 7.173 19.161C7.28833 19.2763 7.436 19.334 7.616 19.334H16.385C16.5383 19.334 16.6793 19.27 16.808 19.142C16.9367 19.014 17.0007 18.8726 17 18.718V6.33396ZM9.808 17.334H10.808V8.33396H9.808V17.334ZM13.192 17.334H14.192V8.33396H13.192V17.334Z" fill="#45383F"/>
</svg>
