<svg width="20" height="21" viewBox="0 0 20 21" fill="none" xmlns="http://www.w3.org/2000/svg">
<path d="M17.5 12.3055L16.8775 12.3588C16.8918 12.5189 16.9673 12.6673 17.0882 12.7732C17.2091 12.8791 17.3661 12.9343 17.5267 12.9275C17.6873 12.9206 17.839 12.8521 17.9504 12.7363C18.0619 12.6205 18.1244 12.4662 18.125 12.3055H17.5ZM3.13667 10.7863L3.725 7.38632L2.4925 7.17299L1.905 10.573L3.13667 10.7863ZM8.9625 3.12549H12.8367V1.87549H8.9625V3.12549ZM13.5958 3.82382L14.2725 11.6505L15.5183 11.543L14.8408 3.71549L13.5958 3.82382ZM3.725 7.38632C4.1475 4.94465 6.34917 3.12549 8.9625 3.12549V1.87549C5.77417 1.87549 3.02417 4.09965 2.4925 7.17299L3.725 7.38632ZM8.95417 16.5838L9.50667 13.213L8.27333 13.0113L7.72083 16.3813L8.95417 16.5838ZM14.01 12.2955L12.8108 13.3288L13.6275 14.2763L14.8267 13.243L14.01 12.2955ZM10.63 16.6905L10.2333 18.2188L11.4433 18.5322L11.84 17.0047L10.63 16.6905ZM9.635 18.5188L9.51417 18.4797L9.13167 19.6697L9.2525 19.7088L9.635 18.5188ZM11.2308 15.1538C10.9708 15.6405 10.7683 16.1563 10.63 16.6905L11.84 17.0047C11.9548 16.5661 12.1204 16.1424 12.3333 15.7422L11.2308 15.1538ZM9.51417 18.4797C9.39545 18.4433 9.28776 18.3777 9.20098 18.2889C9.1142 18.2 9.05112 18.0909 9.0175 17.9713L7.8075 18.2847C7.89325 18.6086 8.05967 18.9055 8.29123 19.1477C8.52278 19.3899 8.81193 19.5695 9.13167 19.6697L9.51417 18.4797ZM10.2333 18.2188C10.217 18.279 10.1876 18.3348 10.1473 18.3823C10.107 18.4298 10.0567 18.4679 10 18.4938L10.5425 19.6197C10.7628 19.5149 10.9575 19.3633 11.1131 19.1755C11.2687 18.9876 11.3814 18.7681 11.4433 18.5322L10.2333 18.2188ZM10 18.4938C9.88586 18.548 9.75546 18.5569 9.635 18.5188L9.2525 19.7088C9.67811 19.8449 10.1397 19.813 10.5425 19.6197L10 18.4938ZM8.205 11.6805H3.88833V12.9305H8.205V11.6805ZM16.0675 2.99549L16.8775 12.3588L18.1225 12.2513L17.3142 2.88799L16.0675 2.99549ZM16.875 2.90632V12.3055H18.125V2.90632H16.875ZM17.3142 2.88799C17.3167 2.91827 17.3121 2.94876 17.3022 2.9775C17.2924 3.00624 17.2766 3.03262 17.256 3.05496C17.2354 3.07729 17.2104 3.09509 17.1825 3.10724C17.1546 3.11938 17.1246 3.12559 17.0942 3.12549V1.87549C16.4892 1.87549 16.0158 2.39382 16.0675 2.99549L17.3142 2.88799ZM7.72083 16.3813C7.61667 17.0147 7.64583 17.663 7.8075 18.2847L9.0175 17.9705C8.90083 17.518 8.87833 17.0455 8.95417 16.5838L7.72083 16.3813ZM12.8367 3.12549C13.0276 3.12584 13.2115 3.19774 13.3521 3.32702C13.4926 3.4563 13.5796 3.63356 13.5958 3.82382L14.8408 3.71549C14.7975 3.21369 14.5676 2.74636 14.1966 2.40573C13.8256 2.0651 13.3403 1.87591 12.8367 1.87549V3.12549ZM12.8108 13.3288C12.2442 13.8172 11.6342 14.398 11.23 15.1538L12.3333 15.743C12.6217 15.2022 13.0808 14.7463 13.6275 14.2763L12.8108 13.3288ZM1.905 10.573C1.85483 10.8622 1.86849 11.1588 1.94502 11.4422C2.02156 11.7255 2.15911 11.9887 2.34806 12.2133C2.537 12.4379 2.77276 12.6184 3.03883 12.7423C3.3049 12.8662 3.59484 12.9304 3.88833 12.9305V11.6805C3.77705 11.6804 3.66712 11.656 3.56625 11.609C3.46538 11.562 3.37601 11.4935 3.3044 11.4083C3.23279 11.3232 3.18067 11.2233 3.1517 11.1159C3.12272 11.0084 3.11759 10.896 3.13667 10.7863L1.905 10.573ZM17.0942 3.12549C17.036 3.12549 16.9803 3.1024 16.9392 3.0613C16.8981 3.02019 16.875 2.96445 16.875 2.90632H18.125C18.125 2.33799 17.6642 1.87549 17.0942 1.87549V3.12549ZM9.50667 13.213C9.53773 13.0242 9.52735 12.8309 9.47624 12.6465C9.42512 12.4621 9.3345 12.291 9.21067 12.1451C9.08683 11.9992 8.93273 11.882 8.75908 11.8017C8.58542 11.7213 8.39635 11.6805 8.205 11.6805V12.9305C8.24667 12.9305 8.28 12.968 8.27333 13.0113L9.50667 13.213ZM14.2725 11.6505C14.2827 11.7712 14.2649 11.8925 14.2192 12.0046C14.1734 12.1167 14.1017 12.2164 14.01 12.2955L14.8267 13.243C15.0682 13.0345 15.2569 12.7718 15.3771 12.4762C15.4973 12.1807 15.5457 11.8609 15.5183 11.543L14.2725 11.6505Z" fill="#46445C"/>
</svg>
