<svg width="16" height="17" viewBox="0 0 16 17" fill="none" xmlns="http://www.w3.org/2000/svg">
<path d="M2.48665 5.99081L2.01665 8.71081C1.98907 8.87024 1.99666 9.03376 2.03887 9.18995C2.08109 9.34613 2.15691 9.49121 2.26105 9.61503C2.36519 9.73885 2.49512 9.83843 2.64176 9.90679C2.78839 9.97515 2.9482 10.0107 3.10999 10.0108H6.56399C6.6446 10.0108 6.72424 10.0283 6.79739 10.0622C6.87054 10.0961 6.93545 10.1454 6.98759 10.2069C7.03974 10.2684 7.07787 10.3405 7.09936 10.4182C7.12084 10.4958 7.12515 10.5773 7.11199 10.6568L6.66999 13.3535C6.5985 13.7916 6.61893 14.2397 6.72999 14.6695C6.82265 15.0248 7.09665 15.3108 7.45799 15.4268L7.55465 15.4581C7.77332 15.5281 8.01132 15.5115 8.21732 15.4128C8.32808 15.3605 8.42605 15.2845 8.50436 15.1903C8.58267 15.0961 8.63943 14.9859 8.67065 14.8675L8.98799 13.6448C9.08884 13.2557 9.23565 12.8799 9.42532 12.5255C9.70199 12.0075 10.13 11.5921 10.5753 11.2088L11.5347 10.3821C11.6677 10.2671 11.7717 10.1222 11.838 9.95931C11.9043 9.79638 11.931 9.62007 11.916 9.44481L11.3747 3.18281C11.3508 2.90587 11.224 2.64795 11.0192 2.45997C10.8144 2.27199 10.5466 2.16762 10.2687 2.16748H7.16999C4.84865 2.16748 2.86799 3.78481 2.48665 5.99081Z" fill="#596E9B"/>
<path fill-rule="evenodd" clip-rule="evenodd" d="M14.0213 10.5108C13.8925 10.5164 13.7665 10.4721 13.6696 10.387C13.5727 10.3019 13.5124 10.1826 13.5013 10.0541L12.8547 2.56347C12.8437 2.45192 12.8556 2.33931 12.8896 2.23252C12.9237 2.12572 12.9791 2.02698 13.0526 1.94234C13.126 1.85769 13.216 1.7889 13.3169 1.74018C13.4179 1.69146 13.5277 1.66383 13.6397 1.65898C13.7517 1.65412 13.8634 1.67215 13.9682 1.71195C14.073 1.75175 14.1686 1.81249 14.2491 1.89046C14.3296 1.96843 14.3934 2.062 14.4365 2.16545C14.4797 2.2689 14.5013 2.38006 14.5 2.49213V10.0115C14.5001 10.1405 14.4504 10.2645 14.3612 10.3577C14.272 10.4509 14.1502 10.5053 14.0213 10.5108Z" fill="#596E9B"/>
</svg>
