<svg width="511" height="58" viewBox="0 0 511 58" fill="none" xmlns="http://www.w3.org/2000/svg">
<g filter="url(#filter0_d_351_1548)">
<path d="M147.829 22.4259H138.938V20.3317H158.833V22.4259H149.91V49.651H147.829V22.4259Z" fill="white"/>
<path d="M162.774 20.3317H164.823V33.1065H180.714V20.3317H182.763V49.651H180.714V35.2008H164.808V49.651H162.758V20.3317H162.774Z" fill="white"/>
<path d="M206.094 35.2357H192.584V47.5568H207.371L207.072 49.651H190.535V20.3317H206.772V22.4259H192.584V33.1414H206.094V35.2357Z" fill="white"/>
<path d="M244.875 35.9512V49.651H242.794V20.3317H252.284C257.502 20.3317 260.261 23.4381 260.261 28.0454C260.261 31.7802 258.259 34.206 255.311 34.9215C258.038 35.6371 259.851 37.6092 259.851 42.583V43.7173C259.851 45.7767 259.693 48.5341 260.198 49.6685H258.117C257.628 48.4119 257.739 46.0734 257.739 43.5603V42.8098C257.739 37.9931 256.446 35.9861 251.386 35.9861H244.875V35.9512ZM244.875 33.857H251.275C255.926 33.857 258.085 31.9372 258.085 28.0804C258.085 24.4852 255.973 22.4259 251.843 22.4259H244.875V33.857Z" fill="white"/>
<path d="M268.774 20.3317V49.651H266.725V20.3317H268.774Z" fill="white"/>
<path d="M276.577 20.3317H285.815C290.891 20.3317 293.603 23.2985 293.603 27.5393C293.603 31.0123 291.711 33.2811 289.52 33.9442C291.411 34.5376 294.549 36.5795 294.549 41.1868C294.549 47.0507 290.576 49.651 285.957 49.651H276.577V20.3317ZM285.121 32.932C289.693 32.932 291.443 31.0472 291.443 27.6615C291.443 24.7645 289.63 22.4259 285.925 22.4259H278.579V32.932H285.121ZM278.579 47.5568H286.036C289.52 47.5568 292.436 45.6371 292.436 41.309C292.436 37.5742 290.276 35.0263 284.948 35.0263H278.595V47.5568H278.579Z" fill="white"/>
<path d="M302.068 20.3317V38.0978C302.068 45.8814 306.04 47.9058 309.792 47.9058C314.222 47.9058 317.517 45.8465 317.517 38.0978V20.3317H319.598V37.9756C319.598 47.1554 315.215 50.0001 309.729 50.0001C304.511 50.0001 299.971 46.8587 299.971 38.3596V20.3317H302.068Z" fill="white"/>
<path d="M327.007 49.651V20.3317H330.034C334.164 27.3648 343.844 43.7523 345.515 46.9285H345.546C345.326 42.7051 345.357 38.377 345.357 33.6126V20.3317H347.438V49.651H344.632C340.691 42.8622 330.854 25.8116 328.962 22.6004H328.931C329.12 26.4573 329.088 30.7331 329.088 36.0385V49.651H327.007Z" fill="white"/>
<path d="M370.785 35.2357H357.275V47.5568H372.062L371.762 49.651H355.226V20.3317H371.463V22.4259H357.275V33.1414H370.785V35.2357Z" fill="white"/>
<path d="M236.803 13.8569V16.1256H220.992V14.0488H218.958V16.1256V16.3002V18.3769H238.853V16.1256V13.8569H236.803Z" fill="white"/>
<path d="M229.93 20.6632V22.932V42.7051V49.9826H231.964V22.932H238.853V20.6632H231.964H229.93Z" fill="white"/>
<path d="M218.958 20.6632V22.932H225.831V49.9826H227.881V42.7051V22.932V20.6632H225.831H218.958Z" fill="white"/>
<path d="M226.462 13.8045C226.068 12.7923 225.564 11.8674 225.784 10.733C227.187 11.8499 228.07 11.9895 228.906 11.2391C229.804 10.4537 229.962 9.35427 230.025 8.21989C230.12 8.21989 230.198 8.21989 230.293 8.21989C230.451 8.97033 230.624 9.70331 230.813 10.5934C231.412 10.0698 231.964 9.58115 232.547 9.07504C232.689 10.9948 232.405 11.8674 231.018 13.822C233.651 13.1588 235.464 8.98778 233.335 6.47469C232.484 5.46248 231.806 4.39791 231.586 2.93194C230.687 4.01396 231.002 5.11344 231.002 6.45724C230.482 5.88133 230.056 5.51483 229.788 5.07853C228.843 3.56021 229.095 1.88482 229.331 0C229 0.279232 228.858 0.383946 228.748 0.50611C227.282 2.12915 226.919 4.01396 227.313 6.1082C227.455 6.80628 227.597 7.55672 227.518 8.2548C227.471 8.65619 227.014 9.14485 226.604 9.30191C226.021 9.54624 225.516 9.10995 225.296 8.56893C225.075 8.02792 224.996 7.43455 224.854 6.85864C222.899 9.1274 223.593 12.356 226.462 13.8045Z" fill="white"/>
</g>
<defs>
<filter id="filter0_d_351_1548" x="134.938" y="0" width="241.124" height="58.0001" filterUnits="userSpaceOnUse" color-interpolation-filters="sRGB">
<feFlood flood-opacity="0" result="BackgroundImageFix"/>
<feColorMatrix in="SourceAlpha" type="matrix" values="0 0 0 0 0 0 0 0 0 0 0 0 0 0 0 0 0 0 127 0" result="hardAlpha"/>
<feOffset dy="4"/>
<feGaussianBlur stdDeviation="2"/>
<feComposite in2="hardAlpha" operator="out"/>
<feColorMatrix type="matrix" values="0 0 0 0 0 0 0 0 0 0 0 0 0 0 0 0 0 0 0.25 0"/>
<feBlend mode="normal" in2="BackgroundImageFix" result="effect1_dropShadow_351_1548"/>
<feBlend mode="normal" in="SourceGraphic" in2="effect1_dropShadow_351_1548" result="shape"/>
</filter>
</defs>
</svg>
