<svg width="20" height="21" viewBox="0 0 20 21" fill="none" xmlns="http://www.w3.org/2000/svg">
<path d="M2.5 9.36241L3.1225 9.30908C3.10815 9.14901 3.0327 9.00061 2.9118 8.89472C2.79091 8.78883 2.63387 8.73358 2.4733 8.74044C2.31273 8.7473 2.16098 8.81576 2.04957 8.93158C1.93815 9.04741 1.87563 9.2017 1.875 9.36241H2.5ZM16.8633 10.8816L16.275 14.2816L17.5075 14.4949L18.095 11.0949L16.8633 10.8816ZM11.0375 18.5424H7.16333V19.7924H11.0375V18.5424ZM6.40417 17.8449L5.7275 10.0174L4.48167 10.1249L5.15917 17.9524L6.40417 17.8449ZM16.275 14.2816C15.8525 16.7232 13.6508 18.5424 11.0375 18.5424V19.7924C14.2258 19.7924 16.9758 17.5682 17.5075 14.4949L16.275 14.2816ZM11.0458 5.08408L10.4933 8.45491L11.7267 8.65658L12.2792 5.28658L11.0458 5.08408ZM5.99 9.37241L7.18917 8.33908L6.3725 7.39241L5.175 8.42574L5.99 9.37241ZM9.37 4.97741L9.76667 3.44908L8.55667 3.13574L8.16 4.66324L9.37 4.97741ZM10.365 3.14908L10.4858 3.18824L10.8683 1.99824L10.7475 1.95908L10.365 3.14908ZM8.76917 6.51408C9.02932 6.02733 9.231 5.51153 9.37 4.97741L8.16 4.66324C8.04517 5.10182 7.87961 5.52551 7.66667 5.92574L8.76917 6.51408ZM10.4858 3.18824C10.6046 3.22463 10.7122 3.29023 10.799 3.37905C10.8858 3.46786 10.9489 3.57704 10.9825 3.69658L12.1925 3.38324C12.1067 3.05933 11.9403 2.76242 11.7088 2.52022C11.4772 2.27803 11.1881 2.09845 10.8683 1.99824L10.4858 3.18824ZM9.76667 3.44908C9.78353 3.38917 9.8131 3.3336 9.85336 3.28615C9.89363 3.2387 9.94364 3.20047 10 3.17408L9.4575 2.04824C9.01417 2.26158 8.68083 2.65658 8.55667 3.13574L9.76667 3.44908ZM10 3.17408C10.1141 3.11993 10.2445 3.111 10.365 3.14908L10.7475 1.95908C10.3219 1.82302 9.86035 1.85492 9.4575 2.04824L10 3.17408ZM11.795 9.98741H16.1117V8.73741H11.795V9.98741ZM3.9325 18.6724L3.1225 9.30908L1.8775 9.41658L2.68583 18.7799L3.9325 18.6724ZM3.125 18.7616V9.36241H1.875V18.7616H3.125ZM2.68583 18.7799C2.68329 18.7496 2.68791 18.7191 2.69778 18.6904C2.70765 18.6617 2.72339 18.6353 2.744 18.6129C2.76461 18.5906 2.78964 18.5728 2.8175 18.5607C2.84536 18.5485 2.87544 18.5423 2.90583 18.5424V19.7924C3.51083 19.7924 3.98417 19.2741 3.9325 18.6724L2.68583 18.7799ZM12.2792 5.28658C12.3839 4.65307 12.3544 4.00461 12.1925 3.38324L10.9825 3.69741C11.1007 4.15007 11.1223 4.62253 11.0458 5.08408L12.2792 5.28658ZM7.16333 18.5424C6.97251 18.5421 6.78873 18.4703 6.64821 18.3412C6.50769 18.2121 6.42062 18.035 6.40417 17.8449L5.15917 17.9524C5.20253 18.4542 5.4324 18.9215 5.80342 19.2622C6.17444 19.6028 6.65966 19.792 7.16333 19.7924V18.5424ZM7.18917 8.33908C7.75583 7.85074 8.36583 7.26991 8.77 6.51408L7.66667 5.92574C7.37833 6.46658 6.91917 6.92241 6.3725 7.39241L7.18917 8.33908ZM18.095 11.0949C18.1452 10.8057 18.1315 10.5091 18.055 10.2257C17.9784 9.9424 17.8409 9.67921 17.6519 9.45462C17.463 9.23003 17.2272 9.04947 16.9612 8.92558C16.6951 8.80169 16.4052 8.73746 16.1117 8.73741V9.98741C16.5842 9.98741 16.945 10.4141 16.8633 10.8816L18.095 11.0949ZM2.90583 18.5424C3.0275 18.5424 3.125 18.6407 3.125 18.7616H1.875C1.875 19.3299 2.33583 19.7924 2.90583 19.7924V18.5424ZM10.4933 8.45491C10.4623 8.64373 10.4727 8.83704 10.5238 9.02144C10.5749 9.20585 10.6655 9.37692 10.7893 9.5228C10.9132 9.66868 11.0673 9.78587 11.2409 9.86624C11.4146 9.94661 11.6036 9.98741 11.795 9.98741V8.73741C11.7848 8.73746 11.7748 8.73609 11.7656 8.73181C11.7563 8.72753 11.7482 8.72126 11.7416 8.71346C11.7351 8.70567 11.7304 8.69653 11.7278 8.68669C11.7252 8.67686 11.7248 8.66658 11.7267 8.65658L10.4933 8.45491ZM5.7275 10.0174C5.71734 9.89674 5.73507 9.77538 5.78084 9.66327C5.82661 9.55116 5.89829 9.45149 5.99 9.37241L5.17333 8.42491C4.93179 8.63336 4.74314 8.89614 4.6229 9.19167C4.50266 9.4872 4.45426 9.80704 4.48167 10.1249L5.7275 10.0174Z" fill="#46445C"/>
</svg>
