<svg width="16" height="17" viewBox="0 0 16 17" fill="none" xmlns="http://www.w3.org/2000/svg">
<path d="M13.5133 11.1771L13.9833 8.45713C14.0109 8.2977 14.0033 8.13418 13.9611 7.978C13.9189 7.82181 13.8431 7.67673 13.7389 7.55291C13.6348 7.42909 13.5049 7.32951 13.3582 7.26115C13.2116 7.19279 13.0518 7.15728 12.89 7.15713H9.43601C9.3554 7.15714 9.27576 7.13961 9.20261 7.10575C9.12946 7.07189 9.06455 7.02251 9.01241 6.96104C8.96026 6.89956 8.92213 6.82748 8.90064 6.74979C8.87916 6.67209 8.87485 6.59065 8.88801 6.51113L9.33001 3.81446C9.40141 3.3766 9.38097 2.92867 9.27001 2.49913C9.22211 2.3218 9.1303 2.1594 9.00306 2.02692C8.87583 1.89444 8.71726 1.79615 8.54201 1.74113L8.44535 1.70979C8.22676 1.63986 7.98971 1.65608 7.78268 1.75513C7.55601 1.86446 7.39068 2.06379 7.32935 2.30046L7.01201 3.52313C6.91116 3.91227 6.76435 4.28802 6.57468 4.64246C6.29801 5.16046 5.87001 5.57579 5.42468 5.95913L4.46535 6.78579C4.33226 6.9008 4.22831 7.0457 4.16203 7.20863C4.09575 7.37156 4.06901 7.54787 4.08401 7.72313L4.62535 13.9851C4.64921 14.2621 4.77604 14.52 4.98081 14.708C5.18557 14.896 5.45338 15.0003 5.73135 15.0005H8.83001C11.1513 15.0005 13.132 13.3831 13.5133 11.1771Z" fill="#596E9B"/>
<path fill-rule="evenodd" clip-rule="evenodd" d="M1.97866 6.65722C2.1075 6.65158 2.23353 6.69595 2.33043 6.78105C2.42733 6.86615 2.4876 6.98539 2.49866 7.11388L3.14532 14.6045C3.15628 14.7161 3.14438 14.8287 3.11035 14.9355C3.07633 15.0423 3.02089 15.141 2.94742 15.2257C2.87395 15.3103 2.784 15.3791 2.68306 15.4278C2.58212 15.4766 2.4723 15.5042 2.36033 15.509C2.24835 15.5139 2.13655 15.4959 2.03177 15.4561C1.92699 15.4163 1.83143 15.3555 1.75091 15.2776C1.67039 15.1996 1.60662 15.106 1.56347 15.0026C1.52033 14.8991 1.49873 14.788 1.49999 14.6759V7.15655C1.50005 7.02767 1.54986 6.90379 1.63905 6.81076C1.72823 6.71772 1.8499 6.66271 1.97866 6.65722Z" fill="#596E9B"/>
</svg>
