<svg width="60" height="60" viewBox="0 0 60 60" fill="none" xmlns="http://www.w3.org/2000/svg">
<path d="M40.475 5H19.525C10.425 5 5 10.425 5 19.525V40.45C5 49.575 10.425 55 19.525 55H40.45C49.55 55 54.975 49.575 54.975 40.475V19.525C55 10.425 49.575 5 40.475 5ZM40.925 36.575L35.375 42.125C34.025 43.475 32.275 44.125 30.525 44.125C28.775 44.125 27 43.45 25.675 42.125C23 39.45 23 35.075 25.675 32.4L29.2 28.875C29.925 28.15 31.125 28.15 31.85 28.875C32.575 29.6 32.575 30.8 31.85 31.525L28.325 35.05C27.1 36.275 27.1 38.25 28.325 39.475C29.55 40.7 31.525 40.7 32.75 39.475L38.3 33.925C39.825 32.4 40.675 30.35 40.675 28.175C40.675 26 39.825 23.975 38.3 22.425C35.225 19.35 29.875 19.35 26.8 22.425L20.725 28.5C18.125 31.1 18.125 35.35 20.725 37.975C21.45 38.7 21.45 39.9 20.725 40.625C20 41.35 18.8 41.35 18.075 40.625C14 36.55 14 29.925 18.075 25.85L24.125 19.8C26.375 17.55 29.35 16.325 32.525 16.325C35.7 16.325 38.675 17.55 40.925 19.8C43.175 22.05 44.4 25.025 44.4 28.2C44.4 31.375 43.175 34.35 40.925 36.575Z" fill="#45383F"/>
</svg>
