<svg width="36" height="80" viewBox="0 0 36 80" fill="none" xmlns="http://www.w3.org/2000/svg">
<path d="M32.0101 22.1851V25.8051H3.99011V22.4851H0.370117V25.8051V26.1051V29.4251H35.6301V25.8051V22.1851H32.0101Z" fill="#F2F2F2"/>
<path d="M19.8101 33.0852V36.7052V68.3452V80.0052H23.4301V36.7052H35.6301V33.0852H23.4301H19.8101Z" fill="#F2F2F2"/>
<path d="M0.370117 33.0852V36.7052H12.5701V80.0052H16.1901V68.3452V36.7052V33.0852H12.5701H0.370117Z" fill="#F2F2F2"/>
<path d="M13.68 22.1051C12.98 20.4851 12.08 19.0051 12.49 17.1951C14.97 18.9951 16.53 19.2051 18.03 18.0051C19.62 16.7351 19.89 14.9751 20.02 13.1751C20.17 13.1751 20.33 13.1851 20.48 13.1851C20.77 14.3751 21.06 15.5651 21.4 16.9751C22.47 16.1251 23.43 15.3651 24.47 14.5451C24.72 17.6151 24.22 19.0051 21.75 22.1451C26.42 21.0951 29.61 14.4251 25.85 10.3851C24.33 8.75512 23.14 7.05512 22.76 4.70512C21.16 6.42512 21.72 8.20512 21.72 10.3351C20.8 9.40512 20.06 8.82512 19.57 8.11512C17.9 5.69512 18.35 3.01512 18.76 -0.00488281C18.18 0.455117 17.93 0.615118 17.73 0.815118C15.13 3.41512 14.49 6.43512 15.2 9.76512C15.44 10.8951 15.71 12.0751 15.56 13.1851C15.47 13.8151 14.66 14.6151 13.95 14.8751C12.9 15.2551 12.01 14.5651 11.63 13.6951C11.24 12.8251 11.1 11.8651 10.84 10.9451C7.35 14.6251 8.59 19.7951 13.68 22.1051Z" fill="#F2F2F2"/>
</svg>
