<svg width="60" height="60" viewBox="0 0 60 60" fill="none" xmlns="http://www.w3.org/2000/svg">
<path d="M36.1031 14.1468C36.6235 16.3523 38.6039 17.9953 40.9688 17.9953C43.7297 17.9953 45.968 15.757 45.968 12.996C45.968 10.2351 43.7297 7.99683 40.9688 7.99683C38.5547 7.99683 36.5414 9.70776 36.0727 11.9835C32.0297 12.4171 28.8727 15.846 28.8727 20.0015C28.8727 20.0109 28.8727 20.0179 28.8727 20.0273C24.4758 20.2125 20.461 21.464 17.2735 23.4398C16.0899 22.5234 14.6039 21.9773 12.9914 21.9773C9.1219 21.9773 5.98596 25.1132 5.98596 28.9828C5.98596 31.7906 7.63596 34.2093 10.0196 35.3273C10.2516 43.4601 19.1133 50.0015 30.0141 50.0015C40.9149 50.0015 49.7883 43.4531 50.0086 35.3132C52.3735 34.1882 54.0094 31.7765 54.0094 28.9851C54.0094 25.1156 50.8735 21.9796 47.0039 21.9796C45.3985 21.9796 43.9196 22.521 42.7383 23.4304C39.5227 21.4406 35.4633 20.189 31.0219 20.0226C31.0219 20.0156 31.0219 20.0109 31.0219 20.0039C31.0219 17.0273 33.2344 14.557 36.1031 14.1515V14.1468ZM16.9922 33.4289C17.1094 30.8882 18.7969 28.9382 20.7586 28.9382C22.7203 28.9382 24.2203 30.9984 24.1031 33.539C23.986 36.0796 22.5211 37.0031 20.5571 37.0031C18.593 37.0031 16.875 35.9695 16.9922 33.4289ZM39.2719 28.9382C41.236 28.9382 42.9235 30.8882 43.0383 33.4289C43.1555 35.9695 41.4352 37.0031 39.4735 37.0031C37.5117 37.0031 36.0446 36.082 35.9274 33.539C35.8102 30.9984 37.3078 28.9382 39.2719 28.9382ZM36.9375 39.307C37.3055 39.3445 37.5399 39.7265 37.3969 40.0687C36.1899 42.9539 33.3399 44.9812 30.0141 44.9812C26.6883 44.9812 23.8406 42.9539 22.6313 40.0687C22.4883 39.7265 22.7227 39.3445 23.0906 39.307C25.2469 39.089 27.5789 38.9695 30.0141 38.9695C32.4492 38.9695 34.7789 39.089 36.9375 39.307Z" fill="#45383F"/>
</svg>
