<svg width="30" height="31" viewBox="0 0 30 31" fill="none" xmlns="http://www.w3.org/2000/svg">
<path d="M4.25 25.834L26.0625 16.484C26.288 16.3879 26.4803 16.2277 26.6154 16.0232C26.7505 15.8188 26.8226 15.5791 26.8226 15.334C26.8226 15.0889 26.7505 14.8492 26.6154 14.6447C26.4803 14.4403 26.288 14.28 26.0625 14.184L4.25 4.83399C4.06113 4.7516 3.85471 4.71754 3.64939 4.73486C3.44406 4.75219 3.24627 4.82036 3.07387 4.93323C2.90147 5.04609 2.75989 5.2001 2.66188 5.38136C2.56388 5.56262 2.51254 5.76543 2.5125 5.97149L2.5 11.734C2.5 12.359 2.9625 12.8965 3.5875 12.9715L21.25 15.334L3.5875 17.684C2.9625 17.7715 2.5 18.309 2.5 18.934L2.5125 24.6965C2.5125 25.584 3.425 26.1965 4.25 25.834Z" fill="#45383F"/>
</svg>
