<svg width="60" height="60" viewBox="0 0 60 60" fill="none" xmlns="http://www.w3.org/2000/svg">
<path d="M29.9999 60C46.3822 60 60 46.4117 60 30C60 13.6177 46.3528 0 29.9705 0C13.5587 0 0 13.6177 0 30C0 46.4117 13.5882 60 29.9999 60ZM29.9999 55C16.1176 55 5.02926 43.8823 5.02926 30C5.02926 16.147 16.0882 5.00002 29.9705 5.00002C43.8233 5.00002 54.9704 16.147 55 30C55.0295 43.8823 43.8528 55 29.9999 55ZM29.9705 35.3235C31.3821 35.3235 32.1764 34.5294 32.2057 33L32.647 17.4706C32.6763 15.9706 31.4999 14.853 29.941 14.853C28.3528 14.853 27.2352 15.9411 27.2646 17.4412L27.6469 33C27.6763 34.4999 28.4999 35.3235 29.9705 35.3235ZM29.9705 44.8824C31.6469 44.8824 33.1469 43.5293 33.1469 41.8235C33.1469 40.0881 31.6763 38.7647 29.9705 38.7647C28.2351 38.7647 26.794 40.1176 26.794 41.8235C26.794 43.5 28.2646 44.8824 29.9705 44.8824Z" fill="#F2F2F2"/>
</svg>
