<svg width="29" height="25" viewBox="0 0 29 25" fill="none" xmlns="http://www.w3.org/2000/svg">
<g clip-path="url(#clip0_102_2041)">
<path d="M3.99947 3.68298L25.1759 3.68298C25.488 3.68298 25.7872 3.78936 26.0078 3.97873C26.2285 4.16809 26.3524 4.42491 26.3524 4.69271V20.8483C26.3524 21.1161 26.2285 21.373 26.0078 21.5623C25.7872 21.7517 25.488 21.8581 25.1759 21.8581H3.99947C3.68745 21.8581 3.38821 21.7517 3.16758 21.5623C2.94695 21.373 2.823 21.1161 2.823 20.8483L2.823 4.69271C2.823 4.42491 2.94695 4.16809 3.16758 3.97873C3.38821 3.78936 3.68745 3.68298 3.99947 3.68298ZM23.9995 7.9622L14.6724 15.1313L5.17594 7.93999L5.17594 19.8386H23.9995V7.9622ZM5.77712 5.70244L14.6595 12.4292L23.4136 5.70244L5.77712 5.70244Z" fill="#F2F2F2"/>
</g>
<defs>
<clipPath id="clip0_102_2041">
<rect width="28.2353" height="24.2334" fill="white" transform="translate(0.470459 0.653809)"/>
</clipPath>
</defs>
</svg>
