<svg width="260" height="91" viewBox="0 0 260 91" fill="none" xmlns="http://www.w3.org/2000/svg">
<path d="M10.8029 42.9532H0.959961V40.859H22.9844V42.9532H13.1066V70.1783H10.8029V42.9532Z" fill="#45383F"/>
<path d="M27.3475 40.859H29.6163V53.6338H47.2079V40.859H49.4767V70.1783H47.2079V55.7281H29.5988V70.1783H27.3301V40.859H27.3475Z" fill="#45383F"/>
<path d="M75.3055 55.763H60.3491V68.0841H76.7191L76.3875 70.1783H58.0803V40.859H76.0559V42.9532H60.3491V53.6687H75.3055V55.763Z" fill="#45383F"/>
<path d="M118.237 56.4785V70.1783H115.934V40.859H126.44C132.216 40.859 135.27 43.9654 135.27 48.5727C135.27 52.3075 133.054 54.7333 129.79 55.4488C132.81 56.1644 134.817 58.1364 134.817 63.1103V64.2446C134.817 66.304 134.642 69.0614 135.201 70.1958H132.897C132.356 68.9392 132.478 66.6007 132.478 64.0876V63.3371C132.478 58.5204 131.047 56.5134 125.445 56.5134H118.237V56.4785ZM118.237 54.3843H125.323C130.471 54.3843 132.862 52.4645 132.862 48.6077C132.862 45.0125 130.523 42.9532 125.951 42.9532H118.237V54.3843Z" fill="#45383F"/>
<path d="M144.695 40.859V70.1783H142.426V40.859H144.695Z" fill="#45383F"/>
<path d="M153.333 40.859H163.56C169.18 40.859 172.182 43.8258 172.182 48.0666C172.182 51.5396 170.087 53.8084 167.662 54.4715C169.756 55.0649 173.229 57.1068 173.229 61.7141C173.229 67.578 168.831 70.1783 163.717 70.1783H153.333V40.859ZM162.792 53.4593C167.854 53.4593 169.791 51.5745 169.791 48.1888C169.791 45.2918 167.784 42.9532 163.683 42.9532H155.55V53.4593H162.792ZM155.55 68.0841H163.805C167.662 68.0841 170.89 66.1644 170.89 61.8363C170.89 58.1015 168.499 55.5535 162.601 55.5535H155.567V68.0841H155.55Z" fill="#45383F"/>
<path d="M181.553 40.859V58.6251C181.553 66.4087 185.951 68.4331 190.105 68.4331C195.009 68.4331 198.656 66.3738 198.656 58.6251V40.859H200.96V58.5029C200.96 67.6827 196.108 70.5274 190.035 70.5274C184.258 70.5274 179.232 67.386 179.232 58.8869V40.859H181.553Z" fill="#45383F"/>
<path d="M209.163 70.1783V40.859H212.513C217.086 47.8921 227.801 64.2796 229.651 67.4558H229.686C229.442 63.2324 229.477 58.9043 229.477 54.1399V40.859H231.78V70.1783H228.674C224.311 63.3895 213.421 46.3389 211.327 43.1277H211.292C211.501 46.9846 211.466 51.2604 211.466 56.5658V70.1783H209.163Z" fill="#45383F"/>
<path d="M257.627 55.763H242.67V68.0841H259.04L258.709 70.1783H240.401V40.859H258.377V42.9532H242.67V53.6687H257.627V55.763Z" fill="#45383F"/>
<path d="M109.302 34.3843V36.653H91.7977V34.5762H89.5464V36.653V36.8276V38.9043H111.571V36.653V34.3843H109.302Z" fill="#45383F"/>
<path d="M101.693 41.1905V43.4593V63.2324V70.5099H103.944V43.4593H111.571V41.1905H103.944H101.693Z" fill="#45383F"/>
<path d="M89.5464 41.1905V43.4593H97.1555V70.5099H99.4242V63.2324V43.4593V41.1905H97.1555H89.5464Z" fill="#45383F"/>
<path d="M97.8534 34.3319C97.4171 33.3197 96.8587 32.3947 97.103 31.2604C98.6562 32.3773 99.6335 32.5169 100.558 31.7665C101.553 30.9811 101.728 29.8816 101.798 28.7473C101.902 28.7473 101.99 28.7473 102.094 28.7473C102.269 29.4977 102.461 30.2307 102.67 31.1207C103.333 30.5972 103.944 30.1085 104.59 29.6024C104.747 31.5221 104.433 32.3947 102.897 34.3494C105.812 33.6862 107.819 29.5152 105.463 27.0021C104.52 25.9899 103.77 24.9253 103.525 23.4593C102.531 24.5413 102.88 25.6408 102.88 26.9846C102.304 26.4087 101.832 26.0422 101.536 25.6059C100.489 24.0876 100.768 22.4122 101.03 20.5274C100.663 20.8066 100.506 20.9113 100.384 21.0335C98.7609 22.6565 98.3595 24.5413 98.7958 26.6356C98.9529 27.3337 99.11 28.0841 99.0227 28.7822C98.9704 29.1836 98.4642 29.6722 98.0105 29.8293C97.3648 30.0736 96.8063 29.6373 96.562 29.0963C96.3176 28.5553 96.2304 27.9619 96.0733 27.386C93.9093 29.6548 94.6772 32.8834 97.8534 34.3319Z" fill="#45383F"/>
</svg>
