<svg width="90" height="200" viewBox="0 0 90 200" fill="none" xmlns="http://www.w3.org/2000/svg">
<path d="M80.0208 55.4681V64.5169H9.97952V56.218H0.930664V64.5169V65.2668V73.5658H89.0696V64.5169V55.4681H80.0208Z" fill="#F2F2F2"/>
<path d="M49.5244 82.7147V91.7635V170.854V200H58.5733V91.7635H89.0695V82.7147H58.5733H49.5244Z" fill="#F2F2F2"/>
<path d="M0.930664 82.7147V91.7635H31.4268V200H40.4757V170.854V91.7635V82.7147H31.4268H0.930664Z" fill="#F2F2F2"/>
<path d="M34.2015 55.2681C32.4518 51.2186 30.202 47.5191 31.2269 42.9946C37.4261 47.4941 41.3257 48.019 45.0752 45.0194C49.0497 41.8448 49.7246 37.4453 50.0496 32.9459C50.4245 32.9459 50.8245 32.9709 51.1994 32.9709C51.9243 35.9455 52.6492 38.9201 53.4991 42.4447C56.1738 40.32 58.5735 38.4202 61.1732 36.3705C61.7981 44.0445 60.5483 47.5191 54.374 55.3681C66.0476 52.7434 74.0216 36.0705 64.6227 25.9718C60.8232 21.8973 57.8486 17.6478 56.8987 11.7735C52.8992 16.073 54.299 20.5224 54.299 25.8468C51.9993 23.5221 50.1496 22.0722 48.9247 20.2975C44.7502 14.2482 45.8751 7.54906 46.9 0C45.4501 1.14986 44.8252 1.54981 44.3253 2.04975C37.8261 8.54893 36.2263 16.098 38.0011 24.4219C38.601 27.2466 39.2759 30.1962 38.901 32.9709C38.676 34.5457 36.6512 36.5454 34.8765 37.1954C32.2518 38.1452 30.0271 36.4204 29.0772 34.2457C28.1023 32.071 27.7523 29.6713 27.1024 27.3716C18.3785 36.5704 21.4781 49.4938 34.2015 55.2681Z" fill="#F2F2F2"/>
</svg>
