<svg width="29" height="25" viewBox="0 0 29 25" fill="none" xmlns="http://www.w3.org/2000/svg">
<g clip-path="url(#clip0_102_2079)">
<path d="M22.8233 10.2374H23.9998C24.3118 10.2374 24.611 10.3437 24.8316 10.5331C25.0523 10.7225 25.1762 10.9793 25.1762 11.2471V21.3443C25.1762 21.6121 25.0523 21.869 24.8316 22.0583C24.611 22.2477 24.3118 22.3541 23.9998 22.3541H5.17623C4.86421 22.3541 4.56497 22.2477 4.34434 22.0583C4.12371 21.869 3.99976 21.6121 3.99976 21.3443L3.99976 11.2471C3.99976 10.9793 4.12371 10.7225 4.34434 10.5331C4.56497 10.3437 4.86421 10.2374 5.17623 10.2374H6.3527V9.22763C6.3527 8.29944 6.56571 7.38033 6.97957 6.52279C7.39343 5.66525 8.00004 4.88607 8.76476 4.22974C9.52948 3.57341 10.4373 3.05278 11.4365 2.69757C12.4356 2.34237 13.5065 2.15955 14.588 2.15955C15.6695 2.15955 16.7404 2.34237 17.7395 2.69757C18.7387 3.05278 19.6465 3.57341 20.4112 4.22974C21.1759 4.88607 21.7826 5.66525 22.1964 6.52279C22.6103 7.38033 22.8233 8.29944 22.8233 9.22763V10.2374ZM6.3527 12.2568L6.3527 20.3346H22.8233V12.2568L6.3527 12.2568ZM13.4115 14.2763H15.7645L15.7645 18.3152H13.4115L13.4115 14.2763ZM20.4703 10.2374V9.22763C20.4703 7.88865 19.8506 6.60451 18.7474 5.65771C17.6443 4.71091 16.1481 4.179 14.588 4.179C13.0279 4.179 11.5317 4.71091 10.4285 5.65771C9.32539 6.60451 8.70564 7.88865 8.70564 9.22763V10.2374L20.4703 10.2374Z" fill="#F2F2F2"/>
</g>
<defs>
<clipPath id="clip0_102_2079">
<rect width="28.2353" height="24.2334" fill="white" transform="translate(0.470459 0.140137)"/>
</clipPath>
</defs>
</svg>
