<svg width="24" height="24" viewBox="0 0 24 24" fill="none" xmlns="http://www.w3.org/2000/svg">
<path d="M17.25 12C17.8467 12 18.419 12.2371 18.841 12.659C19.2629 13.081 19.5 13.6533 19.5 14.25V15C19.5 17.9565 16.71 21 12 21C7.29 21 4.5 17.9565 4.5 15V14.25C4.5 13.6533 4.73705 13.081 5.15901 12.659C5.58097 12.2371 6.15326 12 6.75 12H17.25ZM17.25 13.5H6.75C6.55109 13.5 6.36032 13.579 6.21967 13.7197C6.07902 13.8603 6 14.0511 6 14.25V15C6 17.157 8.148 19.5 12 19.5C15.852 19.5 18 17.157 18 15V14.25C18 14.0511 17.921 13.8603 17.7803 13.7197C17.6397 13.579 17.4489 13.5 17.25 13.5ZM12 2.25C13.094 2.25 14.1432 2.6846 14.9168 3.45818C15.6904 4.23177 16.125 5.28098 16.125 6.375C16.125 7.46902 15.6904 8.51823 14.9168 9.29182C14.1432 10.0654 13.094 10.5 12 10.5C10.906 10.5 9.85677 10.0654 9.08318 9.29182C8.3096 8.51823 7.875 7.46902 7.875 6.375C7.875 5.28098 8.3096 4.23177 9.08318 3.45818C9.85677 2.6846 10.906 2.25 12 2.25ZM12 3.75C11.3038 3.75 10.6361 4.02656 10.1438 4.51884C9.65156 5.01113 9.375 5.67881 9.375 6.375C9.375 7.07119 9.65156 7.73887 10.1438 8.23116C10.6361 8.72344 11.3038 9 12 9C12.6962 9 13.3639 8.72344 13.8562 8.23116C14.3484 7.73887 14.625 7.07119 14.625 6.375C14.625 5.67881 14.3484 5.01113 13.8562 4.51884C13.3639 4.02656 12.6962 3.75 12 3.75Z" fill="white"/>
</svg>
