<svg width="25" height="25" viewBox="0 0 25 25" fill="none" xmlns="http://www.w3.org/2000/svg">
<path d="M17.1667 5.5V3.5M8.16666 5.5V3.5M3.91666 8.5H21.4167M3.66666 10.544C3.66666 8.429 3.66666 7.371 4.10266 6.563C4.4969 5.84231 5.10865 5.2645 5.85066 4.912C6.70666 4.5 7.82666 4.5 10.0667 4.5H15.2667C17.5067 4.5 18.6267 4.5 19.4827 4.912C20.2357 5.274 20.8467 5.852 21.2307 6.562C21.6667 7.372 21.6667 8.43 21.6667 10.545V15.457C21.6667 17.572 21.6667 18.63 21.2307 19.438C20.8364 20.1587 20.2247 20.7365 19.4827 21.089C18.6267 21.5 17.5067 21.5 15.2667 21.5H10.0667C7.82666 21.5 6.70666 21.5 5.85066 21.088C5.1088 20.7358 4.49707 20.1583 4.10266 19.438C3.66666 18.628 3.66666 17.57 3.66666 15.455V10.544Z" stroke="#46445C" stroke-width="1.5" stroke-linecap="round" stroke-linejoin="round"/>
</svg>
