<svg width="25" height="25" viewBox="0 0 25 25" fill="none" xmlns="http://www.w3.org/2000/svg">
<path d="M20.6667 15.5L22.6667 13.5V18.5C22.6667 19.0304 22.4559 19.5391 22.0809 19.9142C21.7058 20.2893 21.1971 20.5 20.6667 20.5H4.66666C4.13622 20.5 3.62752 20.2893 3.25244 19.9142C2.87737 19.5391 2.66666 19.0304 2.66666 18.5V6.5C2.66666 5.96957 2.87737 5.46086 3.25244 5.08579C3.62752 4.71071 4.13622 4.5 4.66666 4.5H17.6667L15.6667 6.5H4.66666V18.5H20.6667V15.5ZM23.1067 6.94L22.2267 6.06C21.9454 5.7791 21.5642 5.62132 21.1667 5.62132C20.7692 5.62132 20.3879 5.7791 20.1067 6.06L12.6667 13.5V15.5H6.66666V17.5H15.6667V16.5L23.1067 9.06C23.3876 8.77875 23.5453 8.3975 23.5453 8C23.5453 7.6025 23.3876 7.22125 23.1067 6.94Z" fill="#46445C"/>
</svg>
