<svg width="24" height="25" viewBox="0 0 24 25" fill="none" xmlns="http://www.w3.org/2000/svg">
<path d="M4 4.5H10V10.5H4V4.5ZM14 4.5H20V10.5H14V4.5ZM4 14.5H10V20.5H4V14.5ZM14 17.5C14 18.2956 14.3161 19.0587 14.8787 19.6213C15.4413 20.1839 16.2044 20.5 17 20.5C17.7956 20.5 18.5587 20.1839 19.1213 19.6213C19.6839 19.0587 20 18.2956 20 17.5C20 16.7044 19.6839 15.9413 19.1213 15.3787C18.5587 14.8161 17.7956 14.5 17 14.5C16.2044 14.5 15.4413 14.8161 14.8787 15.3787C14.3161 15.9413 14 16.7044 14 17.5Z" stroke="#46445C" stroke-width="2" stroke-linecap="round" stroke-linejoin="round"/>
</svg>
