<svg width="25" height="25" viewBox="0 0 25 25" fill="none" xmlns="http://www.w3.org/2000/svg">
<path d="M19.0568 15.06C17.3768 14.2 15.1968 13.5 12.6668 13.5C10.1368 13.5 7.95681 14.2 6.27681 15.06C5.78887 15.3113 5.38011 15.6929 5.09591 16.1625C4.81171 16.632 4.66318 17.1712 4.66681 17.72V20.5H20.6668V17.72C20.6668 16.6 20.0568 15.57 19.0568 15.06ZM18.6668 18.5H6.66681V17.72C6.66681 17.34 6.86681 17 7.18681 16.84C8.37681 16.23 10.2968 15.5 12.6668 15.5C15.0368 15.5 16.9568 16.23 18.1468 16.84C18.4668 17 18.6668 17.34 18.6668 17.72V18.5ZM12.6668 12.5C14.8768 12.5 16.6668 10.71 16.6668 8.5V5C16.6668 4.17 15.9968 3.5 15.1668 3.5C14.6468 3.5 14.1868 3.77 13.9168 4.17C13.6468 3.77 13.1868 3.5 12.6668 3.5C12.1468 3.5 11.6868 3.77 11.4168 4.17C11.1468 3.77 10.6868 3.5 10.1668 3.5C9.33681 3.5 8.66681 4.17 8.66681 5V8.5C8.66681 10.71 10.4568 12.5 12.6668 12.5ZM10.6668 6H14.6668V8.5C14.6668 9.6 13.7668 10.5 12.6668 10.5C11.5668 10.5 10.6668 9.6 10.6668 8.5V6Z" fill="#46445C"/>
</svg>
