<svg width="24" height="24" viewBox="0 0 24 24" fill="none" xmlns="http://www.w3.org/2000/svg">
<path d="M5 19H6.098L16.796 8.30202L15.698 7.20402L5 17.902V19ZM4 20V17.48L17.18 4.28802C17.2833 4.19668 17.3967 4.12602 17.52 4.07602C17.6433 4.02602 17.7723 4.00068 17.907 4.00002C18.0417 3.99935 18.1717 4.02068 18.297 4.06402C18.4237 4.10602 18.5403 4.18201 18.647 4.29201L19.714 5.36602C19.824 5.47202 19.8993 5.58868 19.94 5.71602C19.98 5.84268 20 5.96935 20 6.09602C20 6.23202 19.9773 6.36202 19.932 6.48602C19.886 6.60935 19.8133 6.72235 19.714 6.82502L6.519 20H4ZM16.238 7.76202L15.698 7.20402L16.796 8.30202L16.238 7.76202Z" fill="#45383F"/>
</svg>
