<svg width="24" height="24" viewBox="0 0 24 24" fill="none" xmlns="http://www.w3.org/2000/svg">
<path d="M7 5.77498C6.08333 6.50831 5.35433 7.41264 4.813 8.48798C4.27167 9.56331 4.00067 10.734 4 12C4 13.9166 4.58333 15.5876 5.75 17.013C6.91667 18.4383 8.39167 19.359 10.175 19.775C10.425 19.8416 10.625 19.9876 10.775 20.213C10.925 20.4383 11 20.684 11 20.95C11 21.216 10.9083 21.441 10.725 21.625C10.5417 21.809 10.3333 21.8756 10.1 21.825C7.76667 21.3916 5.83333 20.2626 4.3 18.438C2.76667 16.6133 2 14.4673 2 12C2 10.4833 2.30433 9.08331 2.913 7.79998C3.52167 6.51664 4.35067 5.41664 5.4 4.49998H4C3.71667 4.49998 3.47933 4.40398 3.288 4.21198C3.09667 4.01998 3.00067 3.78264 3 3.49998C2.99933 3.21731 3.09533 2.97998 3.288 2.78798C3.48067 2.59598 3.718 2.49998 4 2.49998H8C8.28333 2.49998 8.521 2.59598 8.713 2.78798C8.905 2.97998 9.00067 3.21731 9 3.49998V7.49998C9 7.78331 8.904 8.02098 8.712 8.21298C8.52 8.40498 8.28267 8.50064 8 8.49998C7.71733 8.49931 7.48 8.40331 7.288 8.21198C7.096 8.02064 7 7.78331 7 7.49998V5.77498ZM10.575 13.775L15.55 8.79998C15.75 8.59998 15.9833 8.50398 16.25 8.51198C16.5167 8.51998 16.75 8.62431 16.95 8.82498C17.1333 9.02498 17.2293 9.25831 17.238 9.52498C17.2467 9.79164 17.1507 10.025 16.95 10.225L11.275 15.9C11.075 16.1 10.8417 16.2 10.575 16.2C10.3083 16.2 10.075 16.1 9.875 15.9L7.05 13.05C6.86667 12.8666 6.771 12.6376 6.763 12.363C6.755 12.0883 6.85067 11.8506 7.05 11.65C7.23333 11.4666 7.46667 11.375 7.75 11.375C8.03333 11.375 8.26667 11.4666 8.45 11.65L10.575 13.775ZM18.6 19.5H20C20.2833 19.5 20.521 19.596 20.713 19.788C20.905 19.98 21.0007 20.2173 21 20.5C20.9993 20.7826 20.9033 21.0203 20.712 21.213C20.5207 21.4056 20.2833 21.5013 20 21.5H16C15.7167 21.5 15.4793 21.404 15.288 21.212C15.0967 21.02 15.0007 20.7826 15 20.5V16.5C15 16.2166 15.096 15.9793 15.288 15.788C15.48 15.5966 15.7173 15.5006 16 15.5C16.2827 15.4993 16.5203 15.5953 16.713 15.788C16.9057 15.9806 17.0013 16.218 17 16.5V18.225C17.9167 17.475 18.646 16.5666 19.188 15.5C19.73 14.4333 20.0007 13.2666 20 12C20 10.0833 19.4167 8.41264 18.25 6.98798C17.0833 5.56331 15.6083 4.64231 13.825 4.22498C13.575 4.15831 13.375 4.01264 13.225 3.78798C13.075 3.56331 13 3.31731 13 3.04998C13 2.78264 13.0917 2.55764 13.275 2.37498C13.4583 2.19231 13.6667 2.12564 13.9 2.17498C16.2333 2.60831 18.1667 3.73764 19.7 5.56298C21.2333 7.38831 22 9.53398 22 12C22 13.5166 21.6957 14.9166 21.087 16.2C20.4783 17.4833 19.6493 18.5833 18.6 19.5Z" fill="#46445C"/>
</svg>
