<svg width="24" height="24" viewBox="0 0 24 24" fill="none" xmlns="http://www.w3.org/2000/svg">
<path fill-rule="evenodd" clip-rule="evenodd" d="M3 3.75C3 3.55109 3.07902 3.36032 3.21967 3.21967C3.36032 3.07902 3.55109 3 3.75 3H20.25C20.4489 3 20.6397 3.07902 20.7803 3.21967C20.921 3.36032 21 3.55109 21 3.75V10.5H19.5V4.5H4.5V19.5H7.5075V21H3.75C3.55109 21 3.36032 20.921 3.21967 20.7803C3.07902 20.6397 3 20.4489 3 20.25V3.75ZM20.991 13.998L14.211 20.7765C14.0704 20.9166 13.88 20.9953 13.6815 20.9953C13.483 20.9953 13.2926 20.9166 13.152 20.7765L9.387 17.0115L10.446 15.9495L13.6815 19.185L19.9305 12.936L20.991 13.998Z" fill="#46445C"/>
</svg>
